HIERARCHY
ROOT Root
{
  OFFSET 0.0 0.0 0.0
  CHANNELS 6 Xposition Yposition Zposition Zrotation Yrotation Xrotation
  JOINT Hips
  {
    OFFSET 0.0 100.0 0.0
    CHANNELS 6 Xposition Yposition Zposition Zrotation Yrotation Xrotation
    JOINT Spine1
    {
      OFFSET 5.003913 -0.037094 -0.013727
      CHANNELS 3 Zrotation Yrotation Xrotation
      JOINT Spine2
      {
        OFFSET 7.125363 -1e-06 0.0
        CHANNELS 3 Zrotation Yrotation Xrotation
        JOINT Chest
        {
          OFFSET 7.594027 1e-06 0.0
          CHANNELS 3 Zrotation Yrotation Xrotation
          JOINT Neck1
          {
            OFFSET 26.313086 -0.460272 -0.181672
            CHANNELS 3 Zrotation Yrotation Xrotation
            JOINT Neck2
            {
              OFFSET 8.045911 0.0 0.0
              CHANNELS 3 Zrotation Yrotation Xrotation
              JOINT Head
              {
                OFFSET 6.432774 0.0 0.0
                CHANNELS 3 Zrotation Yrotation Xrotation
                JOINT HeadEnd
                {
                  OFFSET 16.169773 0.06451 0.00362
                  CHANNELS 3 Zrotation Yrotation Xrotation
                }
                JOINT Jaw
                {
                  OFFSET 0.108741 3.12938 0.002639
                  CHANNELS 3 Zrotation Yrotation Xrotation
                }
                JOINT LeftEye
                {
                  OFFSET 4.45173 8.166359 3.206392
                  CHANNELS 3 Zrotation Yrotation Xrotation
                }
                JOINT RightEye
                {
                  OFFSET 4.436895 8.135758 -3.222429
                  CHANNELS 3 Zrotation Yrotation Xrotation
                }
              }
            }
          }
          JOINT LeftShoulder
          {
            OFFSET 23.218927 5.195579 1.621656
            CHANNELS 3 Zrotation Yrotation Xrotation
            JOINT LeftArm
            {
              OFFSET 15.902118 2e-06 -2e-06
              CHANNELS 3 Zrotation Yrotation Xrotation
              JOINT LeftForeArm
              {
                OFFSET 28.739307 0.0 -1e-06
                CHANNELS 3 Zrotation Yrotation Xrotation
                JOINT LeftHand
                {
                  OFFSET 27.093981 -4e-06 0.0
                  CHANNELS 3 Zrotation Yrotation Xrotation
                  JOINT LeftHandThumb1
                  {
                    OFFSET 2.276781 3.380274 0.83384
                    CHANNELS 3 Zrotation Yrotation Xrotation
                    JOINT LeftHandThumb2
                    {
                      OFFSET 4.705309 -1e-06 -1e-06
                      CHANNELS 3 Zrotation Yrotation Xrotation
                      JOINT LeftHandThumb3
                      {
                        OFFSET 2.798515 0.0 3e-06
                        CHANNELS 3 Zrotation Yrotation Xrotation
                        JOINT LeftHandThumbEnd
                        {
                          OFFSET 3.180793 4e-06 -4e-06
                          CHANNELS 3 Zrotation Yrotation Xrotation
                        }
                      }
                    }
                  }
                  JOINT LeftHandIndex1
                  {
                    OFFSET 3.247786 2.352677 0.137192
                    CHANNELS 3 Zrotation Yrotation Xrotation
                    JOINT LeftHandIndex2
                    {
                      OFFSET 6.367095 1e-06 0.0
                      CHANNELS 3 Zrotation Yrotation Xrotation
                      JOINT LeftHandIndex3
                      {
                        OFFSET 3.662364 0.0 0.0
                        CHANNELS 3 Zrotation Yrotation Xrotation
                        JOINT LeftHandIndex4
                        {
                          OFFSET 2.329242 4e-06 -4e-06
                          CHANNELS 3 Zrotation Yrotation Xrotation
                          JOINT LeftHandIndexEnd
                          {
                            OFFSET 2.767823 1e-06 0.0
                            CHANNELS 3 Zrotation Yrotation Xrotation
                          }
                        }
                      }
                    }
                  }
                  JOINT LeftHandMiddle1
                  {
                    OFFSET 3.163612 0.945023 -0.406112
                    CHANNELS 3 Zrotation Yrotation Xrotation
                    JOINT LeftHandMiddle2
                    {
                      OFFSET 6.276789 3e-06 0.0
                      CHANNELS 3 Zrotation Yrotation Xrotation
                      JOINT LeftHandMiddle3
                      {
                        OFFSET 4.35652 -1e-06 4e-06
                        CHANNELS 3 Zrotation Yrotation Xrotation
                        JOINT LeftHandMiddle4
                        {
                          OFFSET 2.996877 0.0 8e-06
                          CHANNELS 3 Zrotation Yrotation Xrotation
                          JOINT LeftHandMiddleEnd
                          {
                            OFFSET 2.323256 3e-06 -4e-06
                            CHANNELS 3 Zrotation Yrotation Xrotation
                          }
                        }
                      }
                    }
                  }
                  JOINT LeftHandRing1
                  {
                    OFFSET 2.882606 -0.309162 0.107445
                    CHANNELS 3 Zrotation Yrotation Xrotation
                    JOINT LeftHandRing2
                    {
                      OFFSET 6.033198 0.0 4e-06
                      CHANNELS 3 Zrotation Yrotation Xrotation
                      JOINT LeftHandRing3
                      {
                        OFFSET 4.350578 3e-06 0.0
                        CHANNELS 3 Zrotation Yrotation Xrotation
                        JOINT LeftHandRing4
                        {
                          OFFSET 2.651321 2e-06 -7e-06
                          CHANNELS 3 Zrotation Yrotation Xrotation
                          JOINT LeftHandRingEnd
                          {
                            OFFSET 1.937663 1e-06 -4e-06
                            CHANNELS 3 Zrotation Yrotation Xrotation
                          }
                        }
                      }
                    }
                  }
                  JOINT LeftHandPinky1
                  {
                    OFFSET 2.865315 -1.525436 0.575687
                    CHANNELS 3 Zrotation Yrotation Xrotation
                    JOINT LeftHandPinky2
                    {
                      OFFSET 5.54936 1e-06 -8e-06
                      CHANNELS 3 Zrotation Yrotation Xrotation
                      JOINT LeftHandPinky3
                      {
                        OFFSET 3.070974 0.0 -4e-06
                        CHANNELS 3 Zrotation Yrotation Xrotation
                        JOINT LeftHandPinky4
                        {
                          OFFSET 1.549672 1e-06 0.0
                          CHANNELS 3 Zrotation Yrotation Xrotation
                          JOINT LeftHandPinkyEnd
                          {
                            OFFSET 1.952123 0.0 0.0
                            CHANNELS 3 Zrotation Yrotation Xrotation
                          }
                        }
                      }
                    }
                  }
                }
              }
            }
          }
          JOINT RightShoulder
          {
            OFFSET 23.161716 5.296122 -1.380114
            CHANNELS 3 Zrotation Yrotation Xrotation
            JOINT RightArm
            {
              OFFSET -16.027195 -2e-06 1.1e-05
              CHANNELS 3 Zrotation Yrotation Xrotation
              JOINT RightForeArm
              {
                OFFSET -28.736639 4e-06 2e-06
                CHANNELS 3 Zrotation Yrotation Xrotation
                JOINT RightHand
                {
                  OFFSET -27.133619 6e-06 0.0
                  CHANNELS 3 Zrotation Yrotation Xrotation
                  JOINT RightHandThumb1
                  {
                    OFFSET -2.274328 -3.351035 -0.83067
                    CHANNELS 3 Zrotation Yrotation Xrotation
                    JOINT RightHandThumb2
                    {
                      OFFSET -4.703594 -3e-06 2e-06
                      CHANNELS 3 Zrotation Yrotation Xrotation
                      JOINT RightHandThumb3
                      {
                        OFFSET -2.794935 -4e-06 -3e-06
                        CHANNELS 3 Zrotation Yrotation Xrotation
                        JOINT RightHandThumbEnd
                        {
                          OFFSET -3.183852 4e-06 1e-06
                          CHANNELS 3 Zrotation Yrotation Xrotation
                        }
                      }
                    }
                  }
                  JOINT RightHandIndex1
                  {
                    OFFSET -3.253496 -2.33755 -0.127667
                    CHANNELS 3 Zrotation Yrotation Xrotation
                    JOINT RightHandIndex2
                    {
                      OFFSET -6.344434 0.0 0.0
                      CHANNELS 3 Zrotation Yrotation Xrotation
                      JOINT RightHandIndex3
                      {
                        OFFSET -3.654871 0.0 -8e-06
                        CHANNELS 3 Zrotation Yrotation Xrotation
                        JOINT RightHandIndex4
                        {
                          OFFSET -2.327586 -1e-06 0.0
                          CHANNELS 3 Zrotation Yrotation Xrotation
                          JOINT RightHandIndexEnd
                          {
                            OFFSET -2.770001 3e-06 8e-06
                            CHANNELS 3 Zrotation Yrotation Xrotation
                          }
                        }
                      }
                    }
                  }
                  JOINT RightHandMiddle1
                  {
                    OFFSET -3.168223 -0.944764 0.411762
                    CHANNELS 3 Zrotation Yrotation Xrotation
                    JOINT RightHandMiddle2
                    {
                      OFFSET -6.266691 -1e-06 -4e-06
                      CHANNELS 3 Zrotation Yrotation Xrotation
                      JOINT RightHandMiddle3
                      {
                        OFFSET -4.348901 0.0 0.0
                        CHANNELS 3 Zrotation Yrotation Xrotation
                        JOINT RightHandMiddle4
                        {
                          OFFSET -3.00024 2e-06 -4e-06
                          CHANNELS 3 Zrotation Yrotation Xrotation
                          JOINT RightHandMiddleEnd
                          {
                            OFFSET -2.321477 -4e-06 -4e-06
                            CHANNELS 3 Zrotation Yrotation Xrotation
                          }
                        }
                      }
                    }
                  }
                  JOINT RightHandRing1
                  {
                    OFFSET -2.885654 0.293261 -0.119232
                    CHANNELS 3 Zrotation Yrotation Xrotation
                    JOINT RightHandRing2
                    {
                      OFFSET -6.032835 -1e-06 -4e-06
                      CHANNELS 3 Zrotation Yrotation Xrotation
                      JOINT RightHandRing3
                      {
                        OFFSET -4.33881 0.0 -4e-06
                        CHANNELS 3 Zrotation Yrotation Xrotation
                        JOINT RightHandRing4
                        {
                          OFFSET -2.654903 -4e-06 -4e-06
                          CHANNELS 3 Zrotation Yrotation Xrotation
                          JOINT RightHandRingEnd
                          {
                            OFFSET -1.935122 0.0 4e-06
                            CHANNELS 3 Zrotation Yrotation Xrotation
                          }
                        }
                      }
                    }
                  }
                  JOINT RightHandPinky1
                  {
                    OFFSET -2.866241 1.503904 -0.60527
                    CHANNELS 3 Zrotation Yrotation Xrotation
                    JOINT RightHandPinky2
                    {
                      OFFSET -5.553177 -2e-06 0.0
                      CHANNELS 3 Zrotation Yrotation Xrotation
                      JOINT RightHandPinky3
                      {
                        OFFSET -3.062664 -1e-06 -4e-06
                        CHANNELS 3 Zrotation Yrotation Xrotation
                        JOINT RightHandPinky4
                        {
                          OFFSET -1.546529 2e-06 4e-06
                          CHANNELS 3 Zrotation Yrotation Xrotation
                          JOINT RightHandPinkyEnd
                          {
                            OFFSET -1.952341 0.0 -4e-06
                            CHANNELS 3 Zrotation Yrotation Xrotation
                          }
                        }
                      }
                    }
                  }
                }
              }
            }
          }
        }
      }
    }
    JOINT LeftLeg
    {
      OFFSET -8.443107 2.567604 10.043214
      CHANNELS 3 Zrotation Yrotation Xrotation
      JOINT LeftShin
      {
        OFFSET 43.229198 1e-06 -1e-06
        CHANNELS 3 Zrotation Yrotation Xrotation
        JOINT LeftFoot
        {
          OFFSET 42.298611 1e-06 1e-06
          CHANNELS 3 Zrotation Yrotation Xrotation
          JOINT LeftToeBase
          {
            OFFSET 14.165858 1e-06 0.0
            CHANNELS 3 Zrotation Yrotation Xrotation
            JOINT LeftToeEnd
            {
              OFFSET 6.7141 -0.234461 0.0
              CHANNELS 3 Zrotation Yrotation Xrotation
            }
          }
        }
      }
    }
    JOINT RightLeg
    {
      OFFSET -8.303923 2.592729 -10.047278
      CHANNELS 3 Zrotation Yrotation Xrotation
      JOINT RightShin
      {
        OFFSET -43.369682 0.0 1e-06
        CHANNELS 3 Zrotation Yrotation Xrotation
        JOINT RightFoot
        {
          OFFSET -42.260784 4e-06 2e-06
          CHANNELS 3 Zrotation Yrotation Xrotation
          JOINT RightToeBase
          {
            OFFSET -14.222245 -2e-06 -1e-06
            CHANNELS 3 Zrotation Yrotation Xrotation
            JOINT RightToeEnd
            {
              OFFSET -6.660062 0.232574 -2e-06
              CHANNELS 3 Zrotation Yrotation Xrotation
            }
          }
        }
      }
    }
  }
}
MOTION
Frames: 4
Frame Time: 0.03333333333333333
0.0 0.0 0.0 0.0 -0.0 0.0 -1.320035 99.467712 -1.049842 87.52742 2.871854 89.879425 -3.593931 -0.756959 -0.242798 -11.808889 -0.673907 -1.085099 16.594999 3.454908 -3.028864 8.031982 -0.881304 2.863166 -2.703054 -0.962205 0.185461 -23.785173 0.505267 -0.837866 4e-06 0.0 0.0 -0.069563 0.026509 0.09938 0.047878 0.044972 0.135215 0.044783 -0.000869 0.073436 -148.913742 -68.067947 167.398209 39.721535 -33.170692 -3.625334 70.898232 -0.768705 -0.246254 -3.695341 7.534431 -33.796577 17.636599 -26.322815 52.411549 -19.466894 -14.395721 29.410717 -9e-06 -8.774902 1.6e-05 16.644203 -17.652483 5.508698 -0.609776 -1.795667 -3.889355 -4.80711 -11.046886 -2.93789 3.3e-05 -20.976212 -5.2e-05 -5.019965 -25.033886 -4.031991 6e-06 2e-06 1e-06 -10.63458 -5.687003 -3.565606 10.573369 -17.923067 -3.113982 1.9e-05 -13.82133 -2.6e-05 -0.50169 -31.181911 -4.027147 -11.379854 -59.045662 7.227214 -13.982778 -7.150236 -2.875054 13.772831 -8.401554 -3.218308 0.347793 -34.211891 0.77158 -0.963014 -17.733595 2.621028 -0.0 -1e-06 0.0 -17.346493 -20.095327 -4.20182 21.757713 -1.638389 3.86642 5e-06 -6.338876 -9e-06 -1.697554 -22.592033 -6.194149 -0.0 -5e-06 -4e-06 25.904963 -73.293953 170.65593 32.867413 -40.934505 -9.229626 66.505486 -0.942229 0.007983 11.8223 -2.269167 -7.820228 22.182096 -20.375952 49.933628 -16.701979 -16.743652 28.47681 -2e-06 -12.690699 2.6e-05 16.033764 -17.540688 2.816573 -0.105916 -1.513869 -4.275909 -5.039064 -5.612912 -2.953579 5e-06 -11.020617 -2.5e-05 -6.111335 -15.895524 -3.840541 -1e-06 -2e-06 -0.0 -10.283409 -5.680328 -4.341858 11.02836 -11.302469 -2.372685 -1.384261 -14.238703 -6.320208 -0.62538 -26.924509 -3.827726 -5.09078 -50.399521 -2.749496 -13.708578 -7.363524 -3.720951 18.141262 -14.05281 -3.242752 1.3e-05 -18.787428 -3.8e-05 -0.429716 -8.456126 2.555516 -1e-06 -1e-06 -0.0 -15.923601 -20.094604 -5.473618 30.419395 -7.190835 1.735878 -1e-06 -8.162981 -1.3e-05 -1.861889 -22.861706 -6.168061 1e-06 -3e-06 -1e-06 -176.794724 -11.66359 -17.987089 5.308115 -0.017238 0.491369 -72.622971 -5.737138 -14.498391 -5.453182 1.419099 2.086058 -0.999999 -0.0 -0.0 5.955561 -1.716561 -14.837529 5.423822 -0.01691 0.106033 -76.235367 -3.984244 -7.23449 -5.258328 0.699331 1.668189 -1.000003 -1e-06 -0.0 
0.0 0.0 0.0 0.0 -0.0 0.0 -1.718067 99.484848 -1.044734 87.280472 2.763345 89.918198 -3.512049 -0.695255 -0.260371 -11.790758 -0.669935 -1.112224 16.498177 3.529552 -3.010084 7.795452 -0.802273 2.833823 -2.705858 -0.996368 0.115663 -23.819773 0.407926 -0.952466 7e-06 0.0 0.0 -0.054458 0.029766 0.088336 0.095957 0.051284 0.137484 0.076739 -0.000272 0.048936 -147.577301 -68.468811 166.212036 37.979321 -33.560753 -3.688953 73.510597 -0.719327 -0.337498 -3.516972 7.898067 -35.054272 17.63678 -26.322714 52.411026 -19.466581 -14.395587 29.410248 1.3e-05 -8.774842 -2.3e-05 16.518938 -17.842903 5.54964 -0.609781 -1.795649 -3.889317 -4.807112 -11.046804 -2.937833 -1.9e-05 -20.976021 3.5e-05 -5.020031 -25.033594 -4.031874 6e-06 2e-06 2e-06 -10.634562 -5.686971 -3.565577 10.573271 -17.922932 -3.113854 -1.1e-05 -13.821213 1.9e-05 -0.501839 -31.18157 -4.026984 -11.410419 -58.988914 7.20602 -13.982753 -7.150198 -2.875033 13.77275 -8.401478 -3.218206 0.347692 -34.211578 0.771709 -0.963047 -17.733419 2.621047 0.0 0.0 -0.0 -17.346487 -20.095207 -4.201754 21.757612 -1.638373 3.866468 -3e-06 -6.338828 8e-06 -1.697635 -22.591795 -6.194003 -1e-06 -5e-06 -3e-06 27.426207 -73.186699 169.457275 30.366966 -41.479057 -10.183267 67.571289 -0.647978 0.142923 11.939846 -1.877358 -8.600537 22.182293 -20.375858 49.933147 -16.701752 -16.743492 28.476372 2.2e-05 -12.690634 -4.3e-05 16.036606 -17.496145 2.842798 -0.105927 -1.513855 -4.275867 -5.039067 -5.612884 -2.953548 -9e-06 -11.020563 1.3e-05 -6.111368 -15.895427 -3.840471 -0.0 -3e-06 1e-06 -10.283405 -5.680299 -4.341829 11.028303 -11.302413 -2.372591 -1.384316 -14.238623 -6.320104 -0.625508 -26.924326 -3.82758 -5.116071 -50.477322 -2.693604 -13.708568 -7.363492 -3.720931 18.141169 -14.052751 -3.242612 -1.4e-05 -18.787338 8e-06 -0.429708 -8.456097 2.555517 -0.0 0.0 0.0 -15.923612 -20.094509 -5.473554 30.419256 -7.190833 1.736024 2e-06 -8.162951 -3e-06 -1.861922 -22.861599 -6.167981 0.0 -2e-06 -1e-06 -177.015472 -12.226123 -17.926832 5.487142 9.3e-05 0.490998 -72.571968 -5.728241 -14.811148 -5.548285 1.460875 2.091122 -1.000002 -1e-06 -1e-06 5.864568 -1.178011 -14.612282 5.38584 -0.031202 0.075882 -76.29377 -4.182463 -7.058136 -5.376312 0.693364 1.659932 -1.000003 0.0 -0.0 
0.0 0.0 0.0 0.0 -0.0 0.0 -2.191276 99.501373 -1.047601 86.980377 2.593935 90.056473 -3.431396 -0.614321 -0.287357 -11.779536 -0.667809 -1.184133 16.361502 3.625646 -3.016704 7.557468 -0.735867 2.7732 -2.707541 -1.043967 0.058086 -23.946321 0.320622 -1.071738 7e-06 0.0 0.0 -0.041147 0.0325 0.078925 0.133428 0.057411 0.14136 0.100588 -0.000978 0.026089 -146.067169 -68.80394 164.843536 35.961021 -33.841194 -3.603717 76.056595 -0.657025 -0.464627 -3.364313 8.094623 -36.732975 17.636692 -26.322636 52.41087 -19.466501 -14.395525 29.410152 5e-06 -8.774795 -2.2e-05 16.449224 -18.037395 5.538181 -0.609779 -1.795642 -3.889303 -4.807083 -11.046758 -2.937821 -6e-06 -20.975925 3.6e-05 -5.019979 -25.033459 -4.031845 5e-06 1e-06 2e-06 -10.634515 -5.686947 -3.565568 10.573222 -17.922871 -3.11384 -6e-06 -13.821159 2.2e-05 -0.50182 -31.181408 -4.026949 -11.289972 -58.7855 7.042169 -13.982687 -7.150169 -2.875027 13.77268 -8.401451 -3.218193 0.347697 -34.211422 0.771717 -0.963043 -17.733343 2.621047 0.0 -1e-06 -1e-06 -17.346397 -20.095131 -4.201746 21.7575 -1.638372 3.866448 0.0 -6.338808 1e-05 -1.69761 -22.591702 -6.193958 -2e-06 -6e-06 -1e-06 29.159101 -73.005455 168.037613 27.482435 -42.209068 -10.956722 68.99791 -0.162079 0.249204 12.258671 -1.082542 -10.781996 22.182079 -20.375727 49.932796 -16.701633 -16.743387 28.47617 3e-06 -12.690507 -2.2e-05 15.974854 -17.415035 2.859996 -0.10592 -1.513844 -4.27584 -5.039012 -5.612832 -2.953521 3e-06 -11.020452 1.5e-05 -6.111264 -15.89523 -3.840414 1e-06 -2e-06 1e-06 -10.283321 -5.68025 -4.341795 11.028216 -11.302332 -2.372582 -1.384277 -14.238482 -6.320035 -0.625464 -26.924006 -3.827518 -5.091852 -50.444309 -2.696955 -13.70846 -7.363427 -3.720901 18.141018 -14.052655 -3.242602 4e-06 -18.787149 1.4e-05 -0.429698 -8.456 2.555488 0.0 0.0 0.0 -15.923466 -20.094353 -5.473512 30.418999 -7.190787 1.735963 6e-06 -8.162871 -2e-06 -1.861881 -22.861336 -6.167885 0.0 -2e-06 -1e-06 -177.411285 -12.911479 -17.888596 5.800108 0.020665 0.501169 -72.547211 -5.547851 -15.151279 -5.556234 1.499753 2.102309 -0.999999 1e-06 -0.0 5.676252 -0.522789 -14.380562 5.389654 -0.045299 0.026165 -76.281914 -4.452618 -6.834285 -5.387328 0.698948 1.657872 -1.0 1e-06 0.0 
0.0 0.0 0.0 0.0 -0.0 0.0 -2.745451 99.491409 -1.046446 86.618126 2.383934 90.226784 -3.331462 -0.468489 -0.324072 -11.746502 -0.660513 -1.266523 16.16832 3.733685 -3.068988 7.324189 -0.730139 2.698881 -2.702739 -1.119631 0.072677 -24.189606 0.235873 -1.209615 6e-06 0.0 -0.0 -0.033858 0.037536 0.081191 0.144703 0.070051 0.151763 0.106924 -0.004204 0.02013 -144.174606 -68.977966 163.069794 33.784206 -34.10392 -3.571527 78.358299 -0.56018 -0.534939 -3.114903 8.466138 -38.727951 17.636665 -26.322701 52.411003 -19.466599 -14.39555 29.410273 -2e-06 -8.774809 -1.2e-05 16.430765 -18.233793 5.483288 -0.609776 -1.795651 -3.889315 -4.807082 -11.046797 -2.937835 0.0 -20.976023 2.2e-05 -5.019972 -25.033607 -4.031859 6e-06 2e-06 2e-06 -10.634519 -5.686962 -3.565577 10.573247 -17.922943 -3.113872 1e-06 -13.821219 1.1e-05 -0.501788 -31.181589 -4.026984 -11.147057 -58.676266 6.857206 -13.98269 -7.150186 -2.875034 13.772701 -8.401489 -3.218217 0.347723 -34.211582 0.771686 -0.963035 -17.733421 2.621047 0.0 0.0 0.0 -17.346394 -20.095186 -4.201759 21.757515 -1.638376 3.86644 3e-06 -6.338828 4e-06 -1.697587 -22.591785 -6.194 -1e-06 -8e-06 -3e-06 31.155684 -72.839905 166.332855 24.423161 -43.088196 -11.746354 70.652786 0.315688 0.30305 12.701962 0.352228 -14.844459 22.182171 -20.375895 49.933224 -16.701784 -16.743523 28.476465 9e-06 -12.69062 -1.3e-05 15.970815 -17.362583 2.871152 -0.105923 -1.513856 -4.275874 -5.039051 -5.612882 -2.95355 -4e-06 -11.020559 1.1e-05 -6.111334 -15.89542 -3.840464 0.0 1e-06 0.0 -10.283381 -5.680296 -4.341829 11.028296 -11.302422 -2.372614 -1.384292 -14.238632 -6.320112 -0.625482 -26.924353 -3.827592 -5.116726 -50.469376 -2.687067 -13.708537 -7.363488 -3.72093 18.141148 -14.052757 -3.242647 -1.1e-05 -18.78735 9e-06 -0.429716 -8.456107 2.555516 -1e-06 4e-06 0.0 -15.923567 -20.094511 -5.473556 30.419228 -7.19082 1.73596 -2e-06 -8.162954 -2e-06 -1.861919 -22.861601 -6.167969 0.0 -8e-06 -1e-06 -178.001389 -13.743347 -17.907324 6.337556 0.027373 0.520824 -72.580269 -5.244816 -15.409607 -5.519909 1.535546 2.114303 -0.999999 -1e-06 0.0 5.408601 0.23905 -14.203831 5.431387 -0.051051 -0.012898 -76.279922 -4.740439 -6.561656 -5.295171 0.701792 1.662727 -1.0 -1e-06 -0.0 
